# xmcd
#
# Track frame offsets:
# 150
# 13725
# 26475
# 40350
# 56475
# 71400
# 80325
# 91650
# 103200
# 116325
# 128025
# 140025
# 151425
# 160425
# 173325
#
# Disc length: 2414 seconds
#
#
# Revision: 2
# Processed by: cddbd v1.4PL0 Copyright (c) Steve Scherf et al.
# Submitted via: FreeRIP 2.00 
#
DISCID=bc096c0f
DTITLE=Floyd Cramer - Floyd Cramer Plays Your All-Time Country Favorites - Disk 2
DYEAR=1900
DGENRE=
TTITLE0=Friends in Low Places
TTITLE1=Wings of a Dove
TTITLE2=My Special Angle
TTITLE3=Always on my Mind
TTITLE4=Faded Love
TTITLE5=San Antonio Rose
TTITLE6=The Threee Bells
TTITLE7=There Goes my Everything
TTITLE8=For the Good Times
TTITLE9=Lovesick Blues
TTITLE10=King of the Road
TTITLE11=Please Help Me, I'm Falling
TTITLE12=Forever and Ever, Amen
TTITLE13=Have I told You Lately That I Love You
TTITLE14=Hey Good Lookin'
EXTD=
EXTT0=
EXTT1=
EXTT2=
EXTT3=
EXTT4=
EXTT5=
EXTT6=
EXTT7=
EXTT8=
EXTT9=
EXTT10=
EXTT11=
EXTT12=
EXTT13=
EXTT14=
PLAYORDER=
